<svg id="Layer_1" data-name="Layer 1" xmlns="http://www.w3.org/2000/svg" xmlns:xlink="http://www.w3.org/1999/xlink" viewBox="0 0 175 254"><defs><style>.cls-1{fill:#fff;}.cls-2{fill:url(#linear-gradient);}.cls-3{fill:#292929;}.cls-4{fill:#5e6266;}</style><linearGradient id="linear-gradient" x1="36.42" y1="77.36" x2="136.23" y2="77.36" gradientUnits="userSpaceOnUse"><stop offset="0" stop-color="#9f1efb"/><stop offset="1" stop-color="#7a17bf"/></linearGradient></defs><rect class="cls-1" x="-1.17" y="-1.17" width="175" height="254" rx="30"/><path class="cls-2" d="M80.75,30.22a7.4,7.4,0,0,1,11.15,0h0a7.42,7.42,0,0,0,8.7,1.85h0a7.39,7.39,0,0,1,10.18,4.53h0A7.41,7.41,0,0,0,118,41.83h0a7.4,7.4,0,0,1,7.47,8.29h0a7.39,7.39,0,0,0,4.44,7.69h0a7.4,7.4,0,0,1,3.45,10.61h0a7.39,7.39,0,0,0,.92,8.84h0a7.39,7.39,0,0,1-1.16,11.09h0a7.41,7.41,0,0,0-2.75,8.45h0a7.4,7.4,0,0,1-5.57,9.66h0a7.39,7.39,0,0,0-6,6.6h0a7.4,7.4,0,0,1-9,6.56h0a7.4,7.4,0,0,0-8.12,3.61h0a7.4,7.4,0,0,1-10.91,2.32h0a7.4,7.4,0,0,0-8.89,0h0A7.4,7.4,0,0,1,71,123.23h0a7.39,7.39,0,0,0-8.11-3.61h0a7.41,7.41,0,0,1-9-6.56h0a7.38,7.38,0,0,0-5.94-6.6h0a7.4,7.4,0,0,1-5.58-9.66h0a7.39,7.39,0,0,0-2.75-8.45h0A7.39,7.39,0,0,1,38.4,77.26h0a7.41,7.41,0,0,0,.93-8.84h0a7.4,7.4,0,0,1,3.44-10.61h0a7.41,7.41,0,0,0,4.45-7.69h0a7.39,7.39,0,0,1,7.46-8.29h0a7.41,7.41,0,0,0,7.19-5.23h0a7.4,7.4,0,0,1,10.19-4.53h0a7.41,7.41,0,0,0,8.69-1.85Z"/><path class="cls-1" d="M89.75,50.84a1.61,1.61,0,1,0-.4,3.19,24.1,24.1,0,0,1,6.35,1.91A1.62,1.62,0,0,0,97,53,27.58,27.58,0,0,0,89.75,50.84Z"/><path class="cls-1" d="M107.84,63.92a1.61,1.61,0,0,0,.31-2.26,27.69,27.69,0,0,0-5.27-5.27A1.61,1.61,0,1,0,100.93,59a24.1,24.1,0,0,1,4.65,4.65A1.61,1.61,0,0,0,107.84,63.92Z"/><path class="cls-1" d="M109.47,66.73a1.62,1.62,0,0,0-.86,2.11,25.61,25.61,0,0,1,2,6.46,1.61,1.61,0,1,0,3.19-.4,28.33,28.33,0,0,0-2.23-7.31A1.62,1.62,0,0,0,109.47,66.73Z"/><path class="cls-1" d="M75.7,53a1.62,1.62,0,0,0,1.25,3A24.21,24.21,0,0,1,83.3,54a1.61,1.61,0,1,0-.4-3.19A27.7,27.7,0,0,0,75.7,53Z"/><path class="cls-1" d="M86.33,105.83a27.81,27.81,0,0,0,27.48-24.08,1.61,1.61,0,1,0-3.19-.4,24.37,24.37,0,1,1-42.45-19v.53a1.61,1.61,0,0,0,3.22,0V58.35a1.61,1.61,0,0,0-1.61-1.62H65.22a1.62,1.62,0,0,0,0,3.23H66a27.39,27.39,0,0,0,20.33,45.87Z"/><path class="cls-1" d="M66.88,78.33A19.45,19.45,0,1,0,86.33,58.88,19.54,19.54,0,0,0,66.88,78.33Zm21.06-6.45a1.61,1.61,0,1,1,3.22,0v4.83h3.22V71.88a1.62,1.62,0,0,1,3.23,0V84.77a1.62,1.62,0,0,1-3.23,0V79.94H89.55a1.61,1.61,0,0,1-1.61-1.61Zm-8.06,1.61a1.61,1.61,0,0,0-1.61,1.61,1.61,1.61,0,0,1-3.22,0,4.83,4.83,0,0,1,9.66,0c0,3.23-2.14,4.83-3.86,6.13a8.55,8.55,0,0,0-2.07,1.93H83.1a1.61,1.61,0,1,1,0,3.22H76.66a1.61,1.61,0,0,1-1.61-1.61c0-3.22,2.14-4.83,3.86-6.12s2.58-2,2.58-3.55A1.61,1.61,0,0,0,79.88,73.49Z"/><path class="cls-3" d="M42.89,181.35l1.24-1c2.61-2.16,4.66-3.94,6.16-5.32a25.28,25.28,0,0,0,3.84-4.36,7.88,7.88,0,0,0,1.56-4.44,3.93,3.93,0,0,0-.76-2.56,2.78,2.78,0,0,0-2.28-.92,2.82,2.82,0,0,0-2.4,1.16,5.24,5.24,0,0,0-.84,3.2h-6.6a11.39,11.39,0,0,1,1.44-5.68,8.57,8.57,0,0,1,3.64-3.36,11.62,11.62,0,0,1,5-1.08q4.76,0,7.16,2.44a8.61,8.61,0,0,1,2.44,6.36,12.61,12.61,0,0,1-2.92,8,43.94,43.94,0,0,1-7.44,7.12H63v5.56H42.89Zm23.25.28v-5.52L78.78,158h7.64v17.68H89.7v5.92H86.42v5.2H79.58v-5.2Zm13.92-16.08-6.72,10.16h6.72ZM109,148.83,98.25,194.31h-6.6l10.72-45.48Zm20.84,13.92-10,24.08h-7l10.16-23.32H110.49v-5.84h19.32Z"/><path class="cls-4" d="M27.41,209.27c1.74,0,4.12.72,4.12,2.41A1.27,1.27,0,0,1,30.25,213c-1.29,0-1.06-1.57-2.84-1.57-1.33,0-2.35,1-2.35,3.36s1.07,3.45,2.35,3.45c1.87,0,1.61-1.75,3-1.75a1.31,1.31,0,0,1,1.3,1.31c0,1.74-2.4,2.55-4.27,2.55-3.42,0-5.18-2.07-5.18-5.43S24.23,209.27,27.41,209.27Z"/><path class="cls-4" d="M33,213.62a1.31,1.31,0,0,1,2.61,0v3.25c0,1.18.63,1.42,1,1.42.72,0,1.19-.56,1.19-1.7v-3a1.31,1.31,0,0,1,2.61,0V219A1.21,1.21,0,1,1,38,219v-.29a2.45,2.45,0,0,1-2.33,1.57c-2,0-2.69-1.32-2.69-3Z"/><path class="cls-4" d="M41.69,218.64c0-.77.35-1.15,1-1.15,1,0,1.2,1.09,2.55,1.09.53,0,.9-.21.9-.67,0-.28-.13-.46-.81-.6l-1-.2c-1.72-.35-2.55-1.15-2.55-2.39,0-1.63,1.39-2.48,3.46-2.48,1.32,0,3,.67,3,1.75a.83.83,0,0,1-.81.84c-1,0-.86-.93-2.31-.93-.51,0-.88.24-.88.65s.25.46.86.59l1.1.22c1.68.35,2.39,1.15,2.39,2.41,0,1.57-.82,2.53-3.49,2.53C43.2,220.3,41.69,219.8,41.69,218.64Z"/><path class="cls-4" d="M50.16,212.43h.47l.06-1a1.19,1.19,0,0,1,2.38.07v1h.83a.86.86,0,0,1,.85.86.87.87,0,0,1-.85.87h-.77v3.12a.93.93,0,0,0,.75,1.05c.59.17,1,.35,1,.84,0,1-1,1.06-1.9,1.06-1.84,0-2.47-.92-2.45-2.73v-3.34h-.39a.87.87,0,0,1,0-1.73Z"/><path class="cls-4" d="M59.72,212.24a3.74,3.74,0,0,1,4,4,3.8,3.8,0,0,1-4.06,4,4,4,0,0,1,0-8Zm0,6.17c1,0,1.4-.85,1.4-2.15s-.44-2.16-1.42-2.16-1.4.85-1.4,2.14S58.74,218.41,59.71,218.41Z"/><path class="cls-4" d="M65.12,213.52a1.22,1.22,0,0,1,2.43,0v.2A2.63,2.63,0,0,1,70,212.28a2.36,2.36,0,0,1,2.47,1.51,2.6,2.6,0,0,1,2.5-1.51c2,0,2.69,1.22,2.69,3v3.63a1.3,1.3,0,1,1-2.6,0v-3.24c0-1.16-.66-1.39-1.11-1.39s-1.26.28-1.26,1.71v2.92a1.31,1.31,0,0,1-2.61,0v-3.24c0-1.16-.65-1.39-1.1-1.39s-1.26.28-1.26,1.71v2.92a1.31,1.31,0,0,1-2.61,0Z"/><path class="cls-4" d="M83,212.24a3.6,3.6,0,0,1,3.82,3.47c0,.78-.25,1.23-1.15,1.23H81.49a1.54,1.54,0,0,0,1.57,1.5c1,0,1.17-.84,2-.84a1.07,1.07,0,0,1,1,1.08c0,1.14-1.5,1.6-2.87,1.6-2.65,0-4.27-1.56-4.27-4A3.78,3.78,0,0,1,83,212.24Zm1.31,3.18A1.36,1.36,0,0,0,82.9,214c-.78,0-1.3.56-1.4,1.46Z"/><path class="cls-4" d="M88.11,213.52a1.21,1.21,0,0,1,2.42,0v.34h.06c.28-.67.66-1.54,1.49-1.54a1.12,1.12,0,0,1,1.21,1.14,1.09,1.09,0,0,1-1.09,1.1c-1.16,0-1.48,1-1.48,2v2.3a1.31,1.31,0,0,1-2.61,0Z"/><path class="cls-4" d="M102.07,209.24c1.57,0,4,.66,4,2.18a1.18,1.18,0,0,1-1.22,1.17c-1.18,0-1.19-1.28-2.82-1.28-.91,0-1.44.42-1.44.91s.26.9,1.33,1.12l1.71.37c2.14.46,3,1.55,3,3.13,0,1.8-1.13,3.46-4.42,3.46-2.11,0-4.44-.6-4.44-2.22A1.18,1.18,0,0,1,99,216.92c1.19,0,1.38,1.12,3.06,1.12,1.12,0,1.72-.34,1.72-1,0-.49-.27-.83-1.28-1l-1.72-.36c-2-.42-2.93-1.4-2.93-3.14S99.38,209.24,102.07,209.24Z"/><path class="cls-4" d="M108,213.62a1.3,1.3,0,1,1,2.6,0v3.25c0,1.18.63,1.42,1,1.42.71,0,1.19-.56,1.19-1.7v-3a1.3,1.3,0,1,1,2.6,0V219a1.21,1.21,0,0,1-2.42,0v-.29a2.45,2.45,0,0,1-2.32,1.57c-2,0-2.69-1.32-2.69-3Z"/><path class="cls-4" d="M117.23,213.51a1.2,1.2,0,0,1,2.39,0v.08a2.82,2.82,0,0,1,2.5-1.31c2.09,0,3.08,1.74,3.08,3.82,0,2.58-1.47,4.13-3.49,4.13a2.73,2.73,0,0,1-1.88-.71V222a1.3,1.3,0,0,1-2.6,0Zm3.94,5c.75,0,1.41-.65,1.41-2.24s-.64-2.14-1.36-2.14-1.45.64-1.45,2.14C119.77,217.91,120.41,218.48,121.17,218.48Z"/><path class="cls-4" d="M126.64,213.51a1.2,1.2,0,0,1,2.39,0v.08a2.82,2.82,0,0,1,2.5-1.31c2.08,0,3.08,1.74,3.08,3.82,0,2.58-1.47,4.13-3.49,4.13a2.7,2.7,0,0,1-1.88-.71V222a1.3,1.3,0,0,1-2.6,0Zm3.93,5c.76,0,1.42-.65,1.42-2.24s-.65-2.14-1.36-2.14-1.46.64-1.46,2.14C129.17,217.91,129.82,218.48,130.57,218.48Z"/><path class="cls-4" d="M139.66,212.24a3.74,3.74,0,0,1,4,4,3.81,3.81,0,0,1-4.07,4,4,4,0,0,1,.06-8Zm0,6.17c1,0,1.4-.85,1.4-2.15s-.44-2.16-1.42-2.16-1.4.85-1.4,2.14S138.68,218.41,139.65,218.41Z"/><path class="cls-4" d="M145.06,213.52a1.22,1.22,0,0,1,2.43,0v.34h0c.28-.67.66-1.54,1.49-1.54a1.13,1.13,0,0,1,1.22,1.14,1.09,1.09,0,0,1-1.1,1.1c-1.16,0-1.48,1-1.48,2v2.3a1.31,1.31,0,0,1-2.61,0Z"/><path class="cls-4" d="M151.45,212.43h.47l.06-1a1.19,1.19,0,0,1,2.38.07v1h.83a.86.86,0,0,1,.85.86.87.87,0,0,1-.85.87h-.77v3.12a.93.93,0,0,0,.75,1.05c.59.17,1,.35,1,.84,0,1-1,1.06-1.9,1.06-1.84,0-2.47-.92-2.46-2.73l0-3.34h-.39a.87.87,0,0,1,0-1.73Z"/></svg>