<?xml version="1.0" encoding="utf-8"?>
<!-- Generator: Adobe Illustrator 25.4.1, SVG Export Plug-In . SVG Version: 6.00 Build 0)  -->
<svg version="1.1" id="Layer_1" xmlns="http://www.w3.org/2000/svg" xmlns:xlink="http://www.w3.org/1999/xlink" x="0px" y="0px"
	 viewBox="0 0 31 31" style="enable-background:new 0 0 31 31;" xml:space="preserve">
<style type="text/css">
	.st0{clip-path:url(#SVGID_00000109732290021176695430000012803472652047264170_);}
	.st1{fill:url(#SVGID_00000029726489434340857030000006443388407377219459_);}
	.st2{fill:#FFFFFF;}
	.st3{opacity:0.35;fill:#FFFFFF;}
</style>
<g>
	<defs>
		<rect id="SVGID_1_" width="31" height="31"/>
	</defs>
	<clipPath id="SVGID_00000086681028351472927240000014600611956562569351_">
		<use xlink:href="#SVGID_1_"  style="overflow:visible;"/>
	</clipPath>
	<g style="clip-path:url(#SVGID_00000086681028351472927240000014600611956562569351_);">
		
			<linearGradient id="SVGID_00000158729115697782066730000012991854889850278844_" gradientUnits="userSpaceOnUse" x1="2.0729" y1="15.612" x2="28.242" y2="15.612">
			<stop  offset="0" style="stop-color:#9F1EFB"/>
			<stop  offset="1" style="stop-color:#7A17BF"/>
		</linearGradient>
		<path style="fill:url(#SVGID_00000158729115697782066730000012991854889850278844_);" d="M5.9,4.3c5.1-5.1,13.4-5.1,18.5,0l0,0
			c5.1,5.1,5.1,13.4,0,18.5L17.2,30c-1.1,1.1-3,1.1-4.1,0l-7.2-7.2C0.8,17.6,0.8,9.4,5.9,4.3L5.9,4.3z"/>
	</g>
</g>
<g>
	<g>
		<path class="st2" d="M23.9,9.4c0,0.5-0.7,0.8-1.5,0.8L21.5,10l-0.8,2.2c-0.1,0.2-0.3,0.4-0.5,0.4l-0.3,0l0-2.6c-4.1,1-7,5.1-7.2,8
			c-0.2,3.3,3.1,3.3,3.1,3.3c-2.9,2.7-8,0.2-4.6-5.7c2.3-3.9,5.9-5.4,7.8-5.9h0c0,0,0,0,0,0c0,0,0.1,0,0-0.1c0,0,0-0.1-0.1-0.1h0
			c0,0,0,0,0,0c-1.4,0.3-2.8,0.7-4.1,1.3c1.3-0.7,2.6-1.2,4.1-1.5c0,0,0,0,0,0c0,0,0,0,0-0.1c0,0,0-0.1-0.1-0.1c0,0,0,0,0,0
			c-4.3,0.6-9.2,3.1-10.7,6.2C6.5,19.1,9,21.6,9,21.6c-2.4-1.6-3.9-6.3,1.5-9.8c3.9-2.6,7-2.8,9.1-2.9l0.3,0l0-2.8l0.3,0
			c0.2,0,0.4,0.1,0.5,0.4l0.9,2.3l0.9-0.1c0.1,0,0.1,0,0.2,0C23.3,8.6,23.9,8.9,23.9,9.4z"/>
		<path class="st2" d="M21.6,8.7l-0.9-2.3C20.6,6.1,20.4,6,20.2,6l-0.3,0l0,2.8C19.9,8.8,20.7,8.7,21.6,8.7z"/>
		<path class="st2" d="M12.7,18c0.2-3,3.1-7,7.2-8c0,0-5.5,0.6-8.1,6.6c-1,2.3-0.3,4.3,2,5.6c0.7-0.1,1.4-0.5,2-1
			C15.8,21.3,12.5,21.3,12.7,18z"/>
		<path class="st2" d="M23.9,9.4c0,0.5-0.7,0.8-1.5,0.8L21.5,10c-0.5,0-1.2,0-1.5,0c0,0,0,0,0,0c0,0-0.1,0-0.1,0
			c0.9-0.1,4-0.3,3.4-1.3C23.7,8.8,23.9,9.1,23.9,9.4z"/>
		<path class="st2" d="M19.9,10l0,2.6l0.3,0c0.2,0,0.4-0.2,0.5-0.4l0.8-2.2C21,10,19.9,10,19.9,10z"/>
		<path class="st2" d="M9,21.6c0,0-2.5-2.5-0.8-6.1c1.5-3.2,6.5-5.6,10.7-6.2c0,0,0,0,0,0c0,0-5,0.4-8.2,2.9
			c-3.2,2.5-3.4,4.3-3.4,6.4C7.4,19.7,8.2,20.7,9,21.6C9,21.5,9,21.6,9,21.6z"/>
	</g>
	<g>
		<path class="st2" d="M16.4,12.4c0,0-3,2.3-3.1,5.6c-0.1,3.3,2.9,3.1,3.7,1.9c0,0-2.5-0.1-2.4-3C14.9,14.1,16.4,12.4,16.4,12.4z"/>
		<path class="st3" d="M16.3,12.6c-0.6,0.8-3.5,4.5-2,7.8c0.9,0.6,2.2,0.3,2.8-0.4c0,0-2.5-0.1-2.4-3C14.8,14.6,15.9,13,16.3,12.6z"
			/>
	</g>
	<g>
		<path class="st2" d="M6.4,17.2c0,0-0.2-6.4,10.9-8.6c0,0-6.5,0.6-9.1,3.6C5.9,15,6.4,17.2,6.4,17.2z"/>
		<path class="st3" d="M6.4,17.2c0,0-0.2-4.9,7.3-7.6c-2.2,0.6-3.9,1.4-5.1,2.3c-0.1,0.1-0.2,0.2-0.3,0.3C5.9,15,6.4,17.2,6.4,17.2z
			"/>
	</g>
</g>
</svg>
