<svg xmlns="http://www.w3.org/2000/svg" xmlns:xlink="http://www.w3.org/1999/xlink" viewBox="0 0 1.11 1.03"><defs><style>.cls-1{isolation:isolate;}.cls-2{fill:#8e7de4;}.cls-11,.cls-3,.cls-5{mix-blend-mode:screen;}.cls-11,.cls-3{opacity:0.26;}.cls-3{fill:url(#linear-gradient);}.cls-10,.cls-12,.cls-4,.cls-6,.cls-7,.cls-8,.cls-9{mix-blend-mode:multiply;}.cls-4{opacity:0.6;fill:url(#linear-gradient-2);}.cls-5{opacity:0.42;fill:url(#linear-gradient-3);}.cls-12,.cls-6,.cls-7,.cls-8{opacity:0.75;}.cls-6{fill:url(#linear-gradient-4);}.cls-7{fill:url(#linear-gradient-5);}.cls-8{fill:url(#linear-gradient-6);}.cls-9{fill:url(#linear-gradient-7);}.cls-10{fill:url(#linear-gradient-8);}.cls-11{fill:url(#linear-gradient-9);}.cls-12{fill:url(#linear-gradient-10);}</style><linearGradient id="linear-gradient" x1="0.83" y1="0.46" x2="0.83" y2="0.27" gradientUnits="userSpaceOnUse"><stop offset="0.01" stop-color="#fff"/><stop offset="1" stop-color="#573027"/></linearGradient><linearGradient id="linear-gradient-2" x1="0.62" y1="0.55" x2="0.62" y2="-0.44" gradientUnits="userSpaceOnUse"><stop offset="0" stop-color="#fff"/><stop offset="0.99" stop-color="#cdada4"/></linearGradient><linearGradient id="linear-gradient-3" x1="0.68" y1="0.79" x2="1.17" y2="0.79" xlink:href="#linear-gradient"/><linearGradient id="linear-gradient-4" x1="0.56" y1="0.79" x2="0.89" y2="0.79" gradientUnits="userSpaceOnUse"><stop offset="0" stop-color="#855950"/><stop offset="1" stop-color="#ad857b"/></linearGradient><linearGradient id="linear-gradient-5" x1="0.22" y1="0.79" x2="0.56" y2="0.79" xlink:href="#linear-gradient-4"/><linearGradient id="linear-gradient-6" x1="1.01" y1="0.47" x2="0.72" y2="0.58" xlink:href="#linear-gradient-4"/><linearGradient id="linear-gradient-7" x1="0.51" y1="0.59" x2="0.12" y2="0.98" xlink:href="#linear-gradient-2"/><linearGradient id="linear-gradient-8" x1="0.48" y1="0.15" x2="0.64" y2="0.71" gradientUnits="userSpaceOnUse"><stop offset="0.02" stop-color="#fff"/><stop offset="0.99" stop-color="#cdada4"/></linearGradient><linearGradient id="linear-gradient-9" x1="0.28" y1="0.46" x2="0.28" y2="0.27" xlink:href="#linear-gradient"/><linearGradient id="linear-gradient-10" x1="0.5" y1="0.5" x2="0.17" y2="0.5" xlink:href="#linear-gradient-4"/></defs><g class="cls-1"><g id="Layer_1" data-name="Layer 1"><polygon class="cls-2" points="0.32 0.63 0 0.37 0.42 0.36 0.56 0 0.69 0.36 1.11 0.37 0.79 0.63 0.89 1.03 0.56 0.81 0.22 1.03 0.32 0.63"/><polygon class="cls-3" points="1.1 0.37 0.69 0.36 0.56 0.55 1.1 0.37"/><polygon class="cls-4" points="0.56 0.55 0.69 0.36 0.69 0.36 0.56 0 0.56 0.55 0.56 0.55"/><polygon class="cls-5" points="0.56 0.55 0.56 0.56 0.89 1.03 0.89 1.03 0.79 0.63 0.56 0.55"/><polygon class="cls-6" points="0.56 0.56 0.56 0.81 0.89 1.03 0.56 0.56 0.56 0.56"/><polygon class="cls-7" points="0.22 1.03 0.22 1.03 0.56 0.81 0.56 0.56 0.22 1.03"/><polygon class="cls-8" points="0.56 0.55 0.79 0.63 1.11 0.37 1.1 0.37 0.56 0.55 0.56 0.55"/><polygon class="cls-9" points="0.56 0.56 0.55 0.55 0.32 0.63 0.22 1.03 0.56 0.56 0.56 0.56"/><polygon class="cls-10" points="0.56 0.55 0.56 0.55 0.56 0 0.42 0.36 0.55 0.55 0.56 0.55"/><polygon class="cls-11" points="0.42 0.36 0.42 0.36 0 0.37 0 0.37 0.55 0.55 0.42 0.36"/><polygon class="cls-12" points="0.55 0.55 0 0.37 0.32 0.63 0.32 0.63 0.55 0.55 0.55 0.55"/></g></g></svg>