<svg xmlns="http://www.w3.org/2000/svg" xmlns:xlink="http://www.w3.org/1999/xlink" viewBox="0 0 13.24 12.28"><defs><style>.cls-1{isolation:isolate;}.cls-2{fill:#8e7de4;}.cls-11,.cls-3,.cls-5{mix-blend-mode:screen;}.cls-11,.cls-3{opacity:0.26;}.cls-3{fill:url(#linear-gradient);}.cls-10,.cls-12,.cls-4,.cls-6,.cls-7,.cls-8,.cls-9{mix-blend-mode:multiply;}.cls-4{opacity:0.6;fill:url(#linear-gradient-2);}.cls-5{opacity:0.42;fill:url(#linear-gradient-3);}.cls-12,.cls-6,.cls-7,.cls-8{opacity:0.75;}.cls-6{fill:url(#linear-gradient-4);}.cls-7{fill:url(#linear-gradient-5);}.cls-8{fill:url(#linear-gradient-6);}.cls-9{fill:url(#linear-gradient-7);}.cls-10{fill:url(#linear-gradient-8);}.cls-11{fill:url(#linear-gradient-9);}.cls-12{fill:url(#linear-gradient-10);}</style><linearGradient id="linear-gradient" x1="9.9" y1="5.48" x2="9.9" y2="3.26" gradientUnits="userSpaceOnUse"><stop offset="0.01" stop-color="#fff"/><stop offset="1" stop-color="#573027"/></linearGradient><linearGradient id="linear-gradient-2" x1="7.44" y1="6.53" x2="7.44" y2="-5.29" gradientUnits="userSpaceOnUse"><stop offset="0" stop-color="#fff"/><stop offset="0.99" stop-color="#cdada4"/></linearGradient><linearGradient id="linear-gradient-3" x1="8.14" y1="9.44" x2="13.91" y2="9.44" xlink:href="#linear-gradient"/><linearGradient id="linear-gradient-4" x1="6.62" y1="9.45" x2="10.64" y2="9.45" gradientUnits="userSpaceOnUse"><stop offset="0" stop-color="#855950"/><stop offset="1" stop-color="#ad857b"/></linearGradient><linearGradient id="linear-gradient-5" x1="2.59" y1="9.45" x2="6.62" y2="9.45" xlink:href="#linear-gradient-4"/><linearGradient id="linear-gradient-6" x1="12.08" y1="5.61" x2="8.54" y2="6.86" xlink:href="#linear-gradient-4"/><linearGradient id="linear-gradient-7" x1="6.03" y1="7.08" x2="1.46" y2="11.65" xlink:href="#linear-gradient-2"/><linearGradient id="linear-gradient-8" x1="5.7" y1="1.82" x2="7.61" y2="8.45" gradientUnits="userSpaceOnUse"><stop offset="0.02" stop-color="#fff"/><stop offset="0.99" stop-color="#cdada4"/></linearGradient><linearGradient id="linear-gradient-9" x1="3.3" y1="5.48" x2="3.3" y2="3.26" xlink:href="#linear-gradient"/><linearGradient id="linear-gradient-10" x1="5.98" y1="5.97" x2="2.02" y2="5.97" xlink:href="#linear-gradient-4"/></defs><g class="cls-1"><g id="Layer_1" data-name="Layer 1"><polygon class="cls-2" points="3.84 7.51 0 4.44 4.97 4.31 6.62 0 8.27 4.31 13.24 4.44 9.4 7.51 10.64 12.28 6.62 9.67 2.59 12.28 3.84 7.51"/><polygon class="cls-3" points="13.16 4.44 8.27 4.31 6.65 6.58 13.16 4.44"/><polygon class="cls-4" points="6.65 6.58 8.27 4.31 8.27 4.31 6.62 0 6.62 6.59 6.65 6.58"/><polygon class="cls-5" points="6.63 6.6 6.62 6.62 10.64 12.28 10.64 12.28 9.4 7.51 6.63 6.6"/><polygon class="cls-6" points="6.62 6.62 6.62 9.67 10.64 12.28 6.62 6.62 6.62 6.62"/><polygon class="cls-7" points="2.59 12.28 2.59 12.28 6.62 9.67 6.62 6.62 2.59 12.28"/><polygon class="cls-8" points="6.63 6.6 9.4 7.51 13.24 4.44 13.16 4.44 6.65 6.58 6.63 6.6"/><polygon class="cls-9" points="6.62 6.62 6.6 6.6 3.84 7.51 2.59 12.28 6.62 6.62 6.62 6.62"/><polygon class="cls-10" points="6.61 6.6 6.62 6.59 6.62 0 4.97 4.3 6.6 6.59 6.61 6.6"/><polygon class="cls-11" points="4.97 4.3 4.97 4.31 0 4.44 0 4.44 6.6 6.59 4.97 4.3"/><polygon class="cls-12" points="6.6 6.59 0 4.44 3.84 7.51 3.84 7.51 6.6 6.6 6.6 6.59"/></g></g></svg>