<?xml version="1.0" encoding="utf-8"?>
<!-- Generator: Adobe Illustrator 25.4.1, SVG Export Plug-In . SVG Version: 6.00 Build 0)  -->
<svg version="1.1" xmlns="http://www.w3.org/2000/svg" xmlns:xlink="http://www.w3.org/1999/xlink" x="0px" y="0px"
	 viewBox="0 0 274.76 111.57" style="enable-background:new 0 0 274.76 111.57;" xml:space="preserve">
<style type="text/css">
	.st0{fill:url(#SVGID_1_);}
	.st1{fill:url(#SVGID_00000088116793942394402160000001943698355607732104_);}
	.st2{fill:url(#SVGID_00000093890982483300046440000012066512062943618217_);}
	.st3{fill:url(#SVGID_00000012458787212769439290000003066273990389956780_);}
	.st4{fill:url(#SVGID_00000057849241383644352430000000364106752856307382_);}
	.st5{fill:url(#SVGID_00000145046952039900488250000008668840611838041478_);}
	.st6{fill:url(#SVGID_00000075884029040830423740000014618322164824908183_);}
	.st7{opacity:0.35;fill:#FF9948;}
	.st8{fill:url(#SVGID_00000100381012022295109780000012252368878740742571_);}
	.st9{fill:url(#SVGID_00000106136696289081724920000002981182250127364504_);}
	.st10{fill:url(#SVGID_00000083787535588307823160000008265873982062685353_);}
	.st11{fill:url(#SVGID_00000067225839252199940060000007687329166743876784_);}
	.st12{fill:url(#SVGID_00000168075889535603823470000009312177970735586193_);}
	.st13{fill:url(#SVGID_00000013163942015682403130000010265000920210256000_);}
	.st14{fill:url(#SVGID_00000067917954711826182060000017330860877085121427_);}
	.st15{fill:url(#SVGID_00000103227291143509256200000014640891378018504361_);}
	.st16{fill:url(#SVGID_00000014629019801683270980000002559151677973674638_);}
	.st17{fill:url(#SVGID_00000059269070538822295450000002529382742562533048_);}
	.st18{fill:url(#SVGID_00000016760892389397447530000010118576023136041095_);}
	.st19{fill:url(#SVGID_00000018925509399831409810000011133663612026889619_);}
	.st20{fill:url(#SVGID_00000168088998159869422080000003250038945020948907_);}
	.st21{fill:url(#SVGID_00000139277284386631494070000013682096418433274558_);}
	.st22{fill:url(#SVGID_00000133512723440070105130000010882641189461167766_);}
	.st23{fill:url(#SVGID_00000046310670792145634470000003243216109117160068_);}
	.st24{fill:url(#SVGID_00000132051790485678382610000011363445966535209653_);}
	.st25{fill:url(#SVGID_00000155828387028350382260000015163984129845359271_);}
	.st26{fill:url(#SVGID_00000096025353138125953550000014668935377349067165_);}
	.st27{fill:url(#SVGID_00000088092552589119602160000000192835650866400948_);}
	.st28{fill:url(#SVGID_00000020373565896750336170000016118614563274615944_);}
	.st29{fill:url(#SVGID_00000126298297618498540040000000397322109676410242_);}
	.st30{fill:url(#SVGID_00000017483738901664066820000001513118717044964522_);}
	.st31{fill:url(#SVGID_00000007387479353795943180000010379969351247890847_);}
	.st32{fill:url(#SVGID_00000009585102373834724230000000477954686141230505_);}
	.st33{fill:url(#SVGID_00000105398845936709548140000017803853893440100228_);}
	.st34{fill:url(#SVGID_00000026856864702112321530000004126850418899847573_);}
	.st35{fill:url(#SVGID_00000073682722610746974460000001971664866134623661_);}
</style>
<g id="BACKGROUND">
</g>
<g id="OBJECTS">
	<g>
		<g>
			<linearGradient id="SVGID_1_" gradientUnits="userSpaceOnUse" x1="73.5333" y1="18.1752" x2="43.6985" y2="89.7235">
				<stop  offset="0" style="stop-color:#9F1EFB"/>
				<stop  offset="1" style="stop-color:#7A17BF"/>
			</linearGradient>
			<path class="st0" d="M119.8,23.01c0,3.32-4.96,5.63-10.26,5.2l-6.05-0.47L98.2,42.92c-0.52,1.5-1.93,2.51-3.52,2.54l-2.12,0.02
				l-0.21-18.05c-28,6.59-47.51,34.47-49.02,54.63c-1.66,22.17,20.93,22.17,20.93,22.17c-19.48,18.23-54.49,1.45-31.29-38.62
				c15.51-26.79,39.98-36.77,53.51-40.16h0.01c0.01,0,0.02,0,0.02-0.01c0.22-0.06,0.37-0.29,0.32-0.52
				c-0.05-0.24-0.27-0.39-0.51-0.35H86.3c-0.01,0-0.02,0-0.02,0.01c-9.65,1.74-19.07,4.89-28.03,9.03
				c8.75-4.54,18.07-8.15,27.75-10.38c0.02,0,0.03-0.01,0.04-0.01c0.2-0.04,0.34-0.23,0.31-0.44c-0.02-0.22-0.22-0.38-0.45-0.36
				c-0.02,0-0.03,0.01-0.04,0.01C56.69,26.82,23.12,43.4,12.65,64.97c-11.82,24.34,5.2,41.29,5.2,41.29
				C1.48,95.65-8.68,63.41,28.2,39.1c26.63-17.55,47.52-19.09,61.9-19.98l2.15,0.04L92.04,0.03L94.16,0
				c1.59-0.02,3.02,0.96,3.58,2.45l5.91,15.81l5.88-0.46c0.41-0.03,0.83-0.05,1.23-0.05C115.58,17.75,119.8,19.95,119.8,23.01z"/>
			
				<linearGradient id="SVGID_00000183958179775931094470000004913873214331823276_" gradientUnits="userSpaceOnUse" x1="96.752" y1="10.5291" x2="98.1972" y2="20.3703">
				<stop  offset="0" style="stop-color:#9F1EFB"/>
				<stop  offset="0.9997" style="stop-color:#541085"/>
			</linearGradient>
			<path style="fill:url(#SVGID_00000183958179775931094470000004913873214331823276_);" d="M103.65,18.27L97.74,2.45
				C97.18,0.96,95.75-0.02,94.16,0l-2.12,0.02l0.22,19.14C92.26,19.16,97.47,18.5,103.65,18.27z"/>
			
				<linearGradient id="SVGID_00000029042051310360185000000013299268655263703987_" gradientUnits="userSpaceOnUse" x1="47.1571" y1="96.5488" x2="74.5056" y2="36.0505">
				<stop  offset="0" style="stop-color:#E974FC"/>
				<stop  offset="0.9997" style="stop-color:#E974FC;stop-opacity:0"/>
			</linearGradient>
			<path style="fill:url(#SVGID_00000029042051310360185000000013299268655263703987_);" d="M43.33,82.05
				c1.51-20.16,21.03-48.04,49.02-54.63c0,0-37.81,4.27-54.94,45.29c-6.64,15.91-1.96,29.65,13.49,38.42
				c4.68-0.89,9.34-3.15,13.35-6.91C64.25,104.22,41.67,104.22,43.33,82.05z"/>
			
				<linearGradient id="SVGID_00000176005814800944518920000006250594797429004712_" gradientUnits="userSpaceOnUse" x1="102.8949" y1="27.6614" x2="118.5375" y2="21.8602">
				<stop  offset="0" style="stop-color:#E974FC"/>
				<stop  offset="0.9997" style="stop-color:#E974FC;stop-opacity:0"/>
			</linearGradient>
			<path style="fill:url(#SVGID_00000176005814800944518920000006250594797429004712_);" d="M119.8,23.01
				c0,3.32-4.96,5.63-10.26,5.2l-6.05-0.47c-3.25-0.03-8.39-0.22-10.34-0.29c-0.04,0-0.08-0.01-0.12-0.01
				c-0.22-0.02-0.44-0.03-0.68-0.02c6.42-0.36,27.36-2.09,23.07-8.93C118,19.39,119.8,21.02,119.8,23.01z"/>
			
				<linearGradient id="SVGID_00000038415531831398875350000008611734047139049404_" gradientUnits="userSpaceOnUse" x1="97.9166" y1="37.4997" x2="97.9166" y2="26.4272">
				<stop  offset="0" style="stop-color:#9F1EFB"/>
				<stop  offset="0.9997" style="stop-color:#541085"/>
			</linearGradient>
			<path style="fill:url(#SVGID_00000038415531831398875350000008611734047139049404_);" d="M92.35,27.42l0.21,18.05l2.12-0.02
				c1.59-0.02,3-1.04,3.52-2.54l5.29-15.17C99.41,27.7,92.35,27.42,92.35,27.42z"/>
			
				<linearGradient id="SVGID_00000023984249683473903870000008332310658953792904_" gradientUnits="userSpaceOnUse" x1="7.077" y1="89.2482" x2="71.0975" y2="31.0289">
				<stop  offset="0" style="stop-color:#E974FC"/>
				<stop  offset="0.9997" style="stop-color:#E974FC;stop-opacity:0"/>
			</linearGradient>
			<path style="fill:url(#SVGID_00000023984249683473903870000008332310658953792904_);" d="M17.84,106.25
				c0,0-17.01-16.95-5.2-41.29C23.12,43.4,56.69,26.82,85.86,22.43c0.01,0,0.02-0.01,0.04-0.01c0,0-34.34,2.75-55.94,19.65
				c-21.6,16.9-23.31,29.21-23,43.92c0.16,7.37,5.38,14.63,10.55,20.04C17.63,106.11,17.73,106.18,17.84,106.25z"/>
		</g>
		<g>
			
				<linearGradient id="SVGID_00000071522972678815601100000016038614506590184608_" gradientUnits="userSpaceOnUse" x1="60.7694" y1="55.5692" x2="60.2168" y2="88.4427">
				<stop  offset="0" style="stop-color:#F9532C"/>
				<stop  offset="0.9997" style="stop-color:#FF9948"/>
			</linearGradient>
			<path style="fill:url(#SVGID_00000071522972678815601100000016038614506590184608_);" d="M68.53,43.93
				c0,0-20.65,15.95-21.06,38.12c-0.41,22.17,19.48,21.13,25.48,13.26c0,0-17.17-0.86-16.16-20.51
				C57.8,55.15,68.53,43.93,68.53,43.93z"/>
			<path class="st7" d="M67.66,44.94c-4.42,5.28-23.86,30.43-13.73,53.23c6.25,4.27,15.3,2.02,19.02-2.86
				c0,0-17.17-0.86-16.16-20.51C57.63,58.57,65.09,48.1,67.66,44.94z"/>
		</g>
		<g>
			
				<linearGradient id="SVGID_00000005973512954451169590000011491254147455361949_" gradientUnits="userSpaceOnUse" x1="46.5195" y1="27.4425" x2="10.6072" y2="61.4209">
				<stop  offset="0" style="stop-color:#F9532C"/>
				<stop  offset="0.9997" style="stop-color:#FF9948"/>
			</linearGradient>
			<path style="fill:url(#SVGID_00000005973512954451169590000011491254147455361949_);" d="M0.4,76.46c0,0-1.62-43.67,74.42-58.71
				c0,0-44.06,3.97-61.74,24.53C-3.5,61.54,0.4,76.46,0.4,76.46z"/>
			<path class="st7" d="M0.4,76.46c0,0-1.24-33.51,49.59-51.94c-14.96,3.8-26.31,9.49-34.85,15.55c-0.72,0.71-1.41,1.44-2.06,2.2
				C-3.5,61.54,0.4,76.46,0.4,76.46z"/>
		</g>
	</g>
	
		<linearGradient id="SVGID_00000045582741423856513980000012863260024362122885_" gradientUnits="userSpaceOnUse" x1="95.514" y1="64.3773" x2="119.6001" y2="64.3773">
		<stop  offset="0" style="stop-color:#9F1EFB"/>
		<stop  offset="1" style="stop-color:#7A17BF"/>
	</linearGradient>
	<path style="fill:url(#SVGID_00000045582741423856513980000012863260024362122885_);" d="M96.53,50.96c0.53,0,1.37-0.03,2.52-0.08
		c1.15-0.06,2.45-0.12,3.88-0.2c0.23-1.21,0.45-2.34,0.68-3.4c0.23-1.06,0.43-2.06,0.62-3c0-0.68,0.33-1.2,0.99-1.56
		c0.66-0.36,1.39-0.57,2.18-0.62c0.79-0.06,1.53,0.03,2.21,0.25c0.68,0.23,1.06,0.62,1.13,1.19c0,0.15-0.08,0.84-0.23,2.07
		c-0.15,1.23-0.34,2.77-0.57,4.62c1.32-0.08,2.59-0.13,3.8-0.17c1.21-0.04,2.27-0.06,3.17-0.06c0.42,0,0.75,0.14,0.99,0.43
		c0.25,0.28,0.38,0.59,0.4,0.94c0.02,0.34-0.08,0.65-0.31,0.93c-0.23,0.28-0.59,0.43-1.08,0.43c-0.94,0-2.05,0-3.32,0
		c-1.27,0-2.6-0.02-4-0.06c-0.27,2-0.53,4.17-0.79,6.49c-0.26,2.32-0.5,4.64-0.71,6.94c-0.21,2.31-0.39,4.54-0.54,6.69
		c-0.15,2.15-0.22,4.06-0.2,5.73c0.02,1.66,0.13,2.99,0.34,3.97c0.21,0.98,0.54,1.47,0.99,1.47s0.96-0.36,1.53-1.08
		c0.57-0.72,1.15-1.64,1.76-2.78c0.6-1.13,1.21-2.41,1.81-3.83c0.6-1.42,1.18-2.81,1.73-4.19c0.55-1.38,1.04-2.67,1.47-3.86
		c0.43-1.19,0.78-2.14,1.05-2.86c0.11-0.26,0.26-0.45,0.45-0.57c0.19-0.11,0.38-0.15,0.57-0.11c0.19,0.04,0.33,0.12,0.43,0.25
		c0.09,0.13,0.1,0.33,0.03,0.6c-1.1,3.14-2.12,6-3.06,8.59c-0.95,2.59-1.91,4.81-2.89,6.66c-0.98,1.85-2.04,3.3-3.17,4.34
		c-1.13,1.04-2.42,1.56-3.85,1.56c-1.47,0-2.66-0.51-3.57-1.53s-1.58-2.39-2.01-4.11c-0.43-1.72-0.67-3.72-0.71-6.01
		c-0.04-2.29,0.04-4.69,0.23-7.2c0.19-2.51,0.48-5.08,0.88-7.71c0.4-2.63,0.8-5.15,1.22-7.57c-1.36-0.04-2.58-0.07-3.66-0.08
		c-1.08-0.02-1.88-0.03-2.41-0.03c-0.34,0-0.6-0.08-0.77-0.23c-0.17-0.15-0.25-0.32-0.25-0.51c0-0.19,0.08-0.36,0.25-0.51
		C95.94,51.04,96.19,50.96,96.53,50.96z"/>
	
		<linearGradient id="SVGID_00000040534240324896429650000016033334990925895834_" gradientUnits="userSpaceOnUse" x1="115.5591" y1="72.5067" x2="145.8452" y2="72.5067">
		<stop  offset="0" style="stop-color:#9F1EFB"/>
		<stop  offset="1" style="stop-color:#7A17BF"/>
	</linearGradient>
	<path style="fill:url(#SVGID_00000040534240324896429650000016033334990925895834_);" d="M125.95,86.51
		c-2.72,0-4.88-0.69-6.46-2.07c-1.59-1.38-2.69-3.11-3.32-5.19c-0.62-2.08-0.77-4.33-0.45-6.75c0.32-2.42,1.04-4.67,2.15-6.75
		c1.11-2.08,2.62-3.81,4.51-5.19c1.89-1.38,4.08-2.07,6.58-2.07c1.7,0,3.14,0.46,4.31,1.39c1.17,0.93,2.07,2.13,2.69,3.6
		c0.62,1.47,1,3.15,1.13,5.02c0.13,1.87,0.03,3.73-0.31,5.58c1.13-0.6,2.13-1.33,3-2.18c0.87-0.85,1.62-1.68,2.24-2.49
		c0.62-0.81,1.12-1.56,1.5-2.24c0.38-0.68,0.62-1.13,0.74-1.36c0.15-0.3,0.33-0.48,0.54-0.54s0.4-0.05,0.57,0.03
		c0.17,0.08,0.3,0.22,0.4,0.42c0.09,0.21,0.1,0.41,0.03,0.6c-0.08,0.19-0.35,0.72-0.82,1.59c-0.47,0.87-1.13,1.85-1.98,2.95
		s-1.85,2.21-3,3.34c-1.15,1.13-2.45,2.04-3.88,2.72c-0.42,1.32-0.95,2.56-1.59,3.71c-0.64,1.15-1.39,2.16-2.24,3.03
		c-0.85,0.87-1.81,1.56-2.86,2.07C128.35,86.25,127.2,86.51,125.95,86.51z M127.32,83.45c1.36,0,2.54-0.53,3.54-1.59
		c1-1.06,1.82-2.4,2.47-4.02c-0.26,0.04-0.53,0.07-0.79,0.08c-0.26,0.02-0.53,0.03-0.79,0.03c-2.42,0-4.3-0.46-5.64-1.39
		c-1.34-0.93-2.3-2.09-2.86-3.49c-0.23,1.32-0.34,2.61-0.34,3.86s0.15,2.35,0.45,3.32c0.3,0.96,0.78,1.74,1.45,2.32
		C125.45,83.16,126.29,83.45,127.32,83.45z M131,61.34c-0.72,0-1.44,0.25-2.15,0.74c-0.42,0.57-0.79,1.29-1.13,2.15
		c-0.34,0.87-0.6,1.8-0.77,2.81c-0.17,1-0.25,1.99-0.23,2.98c0.02,0.98,0.21,1.88,0.57,2.69c0.36,0.81,0.89,1.46,1.59,1.96
		c0.7,0.49,1.65,0.74,2.86,0.74c0.42,0,0.82-0.02,1.22-0.06c0.4-0.04,0.8-0.11,1.22-0.23c0.38-1.55,0.6-3.14,0.65-4.76
		c0.06-1.62-0.05-3.11-0.31-4.45c-0.26-1.34-0.69-2.44-1.28-3.29C132.65,61.76,131.91,61.34,131,61.34z"/>
	
		<linearGradient id="SVGID_00000071538192115996492140000001870071861125337507_" gradientUnits="userSpaceOnUse" x1="141.0992" y1="72.7866" x2="175.1538" y2="72.7866">
		<stop  offset="0" style="stop-color:#9F1EFB"/>
		<stop  offset="1" style="stop-color:#7A17BF"/>
	</linearGradient>
	<path style="fill:url(#SVGID_00000071538192115996492140000001870071861125337507_);" d="M142.62,61.96
		c0.53-0.83,1.29-1.36,2.27-1.59c0.98-0.23,1.93-0.13,2.83,0.28c0.49,0.23,0.85,0.52,1.08,0.88c0.23,0.36,0.36,0.78,0.4,1.25
		c0.04,0.47,0.03,1-0.03,1.59c-0.06,0.59-0.1,1.24-0.14,1.96c-0.11,1.81-0.27,3.74-0.48,5.78c-0.21,2.04-0.31,3.92-0.31,5.64
		s0.19,3.15,0.57,4.28c0.38,1.13,1.11,1.7,2.21,1.7c0.53,0,1.09-0.17,1.67-0.51c0.59-0.34,1.16-0.91,1.73-1.7
		c0.57-0.79,1.11-1.84,1.62-3.15c0.51-1.3,0.94-2.9,1.28-4.79c0.11-1.81,0.3-3.77,0.57-5.87c0.26-2.1,0.6-4.39,1.02-6.89
		c0.53-0.83,1.28-1.36,2.27-1.59c0.98-0.23,1.93-0.13,2.83,0.28c0.49,0.23,0.85,0.52,1.08,0.88c0.23,0.36,0.36,0.78,0.4,1.25
		s0.03,1-0.03,1.59c-0.06,0.59-0.1,1.24-0.14,1.96c-0.11,1.81-0.25,3.81-0.42,5.98c-0.17,2.17-0.29,4.19-0.37,6.04
		c-0.08,1.85-0.05,3.4,0.08,4.65c0.13,1.25,0.46,1.87,0.99,1.87c0.45,0,0.93-0.34,1.45-1.02c0.51-0.68,1.02-1.56,1.53-2.64
		c0.51-1.08,1.01-2.29,1.5-3.63c0.49-1.34,0.95-2.67,1.39-4c0.43-1.32,0.84-2.56,1.22-3.71c0.38-1.15,0.7-2.09,0.96-2.81
		c0.11-0.26,0.26-0.45,0.45-0.57c0.19-0.11,0.38-0.15,0.57-0.11c0.19,0.04,0.33,0.12,0.43,0.25c0.09,0.13,0.1,0.33,0.03,0.59
		c-0.98,3.17-1.86,6.02-2.64,8.53c-0.78,2.51-1.58,4.65-2.41,6.41c-0.83,1.76-1.73,3.1-2.69,4.03c-0.96,0.93-2.09,1.39-3.37,1.39
		c-2.04,0-3.58-0.57-4.62-1.7c-1.04-1.13-1.71-2.83-2.01-5.1c-0.98,2.57-2.14,4.35-3.49,5.33c-1.34,0.98-2.83,1.47-4.45,1.47
		c-2.34,0-4.14-0.5-5.38-1.5c-1.25-1-2.09-2.51-2.52-4.54c-0.43-2.02-0.53-4.56-0.28-7.62C141.48,69.73,141.94,66.12,142.62,61.96z"
		/>
	
		<linearGradient id="SVGID_00000123403725089216820520000015943774880080691129_" gradientUnits="userSpaceOnUse" x1="168.8109" y1="70.8722" x2="200.0396" y2="70.8722">
		<stop  offset="0" style="stop-color:#9F1EFB"/>
		<stop  offset="1" style="stop-color:#7A17BF"/>
	</linearGradient>
	<path style="fill:url(#SVGID_00000123403725089216820520000015943774880080691129_);" d="M169.32,57.31
		c0.26-0.64,0.65-1.11,1.16-1.42c0.51-0.3,1.09-0.49,1.73-0.57c0.64-0.08,1.29-0.04,1.93,0.11c0.64,0.15,1.21,0.34,1.7,0.57
		c0.49,0.23,0.88,0.48,1.16,0.76c0.28,0.28,0.37,0.54,0.25,0.77c-0.11,0.19-0.27,0.52-0.48,0.99c-0.21,0.47-0.43,1-0.65,1.59
		c-0.23,0.59-0.43,1.21-0.62,1.87c-0.19,0.66-0.29,1.26-0.31,1.79c-0.02,0.53,0.07,0.96,0.26,1.3c0.19,0.34,0.55,0.51,1.08,0.51
		c0.57,0,1.11-0.13,1.62-0.4c0.51-0.26,0.97-0.6,1.39-0.99c0.42-0.4,0.78-0.82,1.11-1.28c0.32-0.45,0.6-0.85,0.82-1.19
		c0.11-0.26,0.26-0.53,0.45-0.79c0.04-0.11,0.08-0.17,0.11-0.17c0.49-0.64,1.13-1.11,1.93-1.42s1.81-0.21,3.06,0.28
		c0.91,0.34,1.54,0.74,1.9,1.19c0.36,0.45,0.54,0.96,0.54,1.53c0,0.57-0.11,1.2-0.34,1.9c-0.23,0.7-0.47,1.48-0.74,2.36
		c-1.02,3.49-1.73,6.34-2.13,8.56s-0.58,3.96-0.54,5.23s0.25,2.14,0.62,2.62c0.38,0.47,0.83,0.71,1.36,0.71
		c0.68,0,1.38-0.34,2.1-1.02c0.72-0.68,1.44-1.56,2.15-2.64c0.72-1.08,1.42-2.29,2.1-3.63c0.68-1.34,1.3-2.67,1.87-4
		c0.57-1.32,1.08-2.56,1.53-3.71c0.45-1.15,0.81-2.09,1.08-2.81c0.11-0.26,0.26-0.45,0.45-0.57c0.19-0.11,0.38-0.15,0.57-0.11
		c0.19,0.04,0.33,0.12,0.42,0.25c0.09,0.13,0.1,0.33,0.03,0.59c-1.1,3.14-2.19,5.95-3.29,8.45c-1.1,2.49-2.21,4.63-3.34,6.41
		c-1.13,1.78-2.31,3.14-3.51,4.08c-1.21,0.95-2.48,1.42-3.8,1.42c-3.36,0-5.6-1.71-6.72-5.12c-1.12-3.41-0.84-8.62,0.82-15.63
		c-0.64,0.66-1.3,1.18-1.98,1.57c-0.68,0.39-1.4,0.58-2.15,0.58c-1.51,0-2.74-0.23-3.68-0.7c-0.94-0.46-1.68-1.05-2.21-1.76
		c-0.53-0.71-0.88-1.49-1.05-2.34s-0.25-1.66-0.25-2.44s0.07-1.46,0.2-2.07C169.14,57.96,169.25,57.54,169.32,57.31z"/>
	
		<linearGradient id="SVGID_00000116222330974437499940000013106380921131827341_" gradientUnits="userSpaceOnUse" x1="198.2104" y1="69.4739" x2="217.8403" y2="69.4739">
		<stop  offset="0" style="stop-color:#9F1EFB"/>
		<stop  offset="1" style="stop-color:#7A17BF"/>
	</linearGradient>
	<path style="fill:url(#SVGID_00000116222330974437499940000013106380921131827341_);" d="M216.32,65.93
		c0.11-0.26,0.26-0.45,0.45-0.57c0.19-0.11,0.38-0.15,0.57-0.11c0.19,0.04,0.33,0.12,0.43,0.25c0.09,0.13,0.1,0.33,0.03,0.59
		c-1.1,3.14-2.11,5.95-3.03,8.45c-0.93,2.49-1.85,4.63-2.78,6.41c-0.93,1.78-1.91,3.14-2.95,4.08c-1.04,0.95-2.2,1.42-3.49,1.42
		c-1.47,0-2.67-0.38-3.6-1.13c-0.93-0.76-1.66-1.74-2.21-2.95c-0.55-1.21-0.93-2.56-1.13-4.05c-0.21-1.49-0.33-2.98-0.37-4.45
		c-0.04-1.47-0.03-2.87,0.03-4.19s0.1-2.4,0.14-3.23c0-0.72,0.07-1.41,0.2-2.07c0.13-0.66,0.39-1.24,0.77-1.73
		c0.38-0.49,0.9-0.87,1.56-1.13c0.66-0.26,1.5-0.34,2.52-0.23c1.21,0.11,1.98,0.68,2.32,1.7c0.34,1.02,0.47,2.25,0.4,3.68
		c-0.11,1.81-0.22,3.73-0.31,5.75c-0.09,2.02-0.14,3.86-0.14,5.53s0.1,3.04,0.31,4.14c0.21,1.1,0.58,1.64,1.11,1.64
		c0.45,0,0.96-0.34,1.53-1.02c0.57-0.68,1.14-1.56,1.73-2.64s1.18-2.29,1.79-3.63c0.6-1.34,1.16-2.67,1.67-4
		c0.51-1.32,0.98-2.56,1.42-3.71C215.7,67.58,216.05,66.65,216.32,65.93z M199.88,55.5c0-0.83,0.29-1.54,0.88-2.13
		c0.59-0.58,1.29-0.88,2.13-0.88c0.83,0,1.54,0.29,2.13,0.88c0.58,0.59,0.88,1.29,0.88,2.13c0,0.83-0.29,1.54-0.88,2.13
		c-0.59,0.59-1.29,0.88-2.13,0.88c-0.83,0-1.54-0.29-2.13-0.88S199.88,56.33,199.88,55.5z"/>
	
		<linearGradient id="SVGID_00000033361986713324043910000015934713241699753137_" gradientUnits="userSpaceOnUse" x1="214.679" y1="73.2156" x2="243.4019" y2="73.2156">
		<stop  offset="0" style="stop-color:#9F1EFB"/>
		<stop  offset="1" style="stop-color:#7A17BF"/>
	</linearGradient>
	<path style="fill:url(#SVGID_00000033361986713324043910000015934713241699753137_);" d="M223.18,88.04
		c-1.74,0-3.22-0.25-4.45-0.74c-1.23-0.49-2.18-1.11-2.86-1.87c-0.68-0.75-1.07-1.61-1.16-2.55c-0.09-0.94,0.12-1.88,0.65-2.81
		c0.53-0.93,1.39-1.79,2.58-2.58c1.19-0.79,2.75-1.44,4.68-1.93c-0.76-0.57-1.5-1.15-2.24-1.76c-0.74-0.6-1.42-1.26-2.04-1.96
		c-0.62-0.7-1.12-1.45-1.5-2.27c-0.38-0.81-0.57-1.71-0.57-2.69c0-2.61,0.86-4.68,2.58-6.21c1.72-1.53,4-2.3,6.83-2.3
		c1.93,0,3.5,0.25,4.73,0.74c1.23,0.49,2.14,1.15,2.75,1.98c0.6,0.83,0.91,1.81,0.91,2.92c0,1.12-0.3,2.3-0.91,3.54
		c-0.15,0.34-0.33,0.54-0.54,0.59c-0.21,0.06-0.41,0.05-0.59-0.03c-0.19-0.08-0.32-0.21-0.4-0.4c-0.08-0.19-0.04-0.38,0.11-0.57
		c0.3-0.42,0.52-1.01,0.65-1.79c0.13-0.77,0.09-1.54-0.11-2.3c-0.21-0.76-0.62-1.41-1.22-1.96c-0.61-0.55-1.47-0.82-2.61-0.82
		c-0.76,0-1.42,0.16-1.98,0.48c-0.57,0.32-1.04,0.75-1.42,1.28c-0.38,0.53-0.66,1.14-0.85,1.84c-0.19,0.7-0.28,1.41-0.28,2.12
		c0,0.91,0.22,1.74,0.65,2.5s0.98,1.48,1.64,2.18c0.66,0.7,1.4,1.37,2.21,2.01c0.81,0.64,1.6,1.29,2.35,1.93
		c1.25-0.26,2.46-0.73,3.63-1.39c1.17-0.66,2.26-1.42,3.26-2.27c1-0.85,1.88-1.74,2.64-2.67c0.76-0.92,1.36-1.8,1.81-2.64
		c0.08-0.15,0.21-0.26,0.4-0.34c0.19-0.08,0.36-0.1,0.51-0.08c0.15,0.02,0.26,0.1,0.34,0.25c0.08,0.15,0.06,0.34-0.06,0.57
		c-0.3,0.68-0.79,1.5-1.47,2.47c-0.68,0.96-1.51,1.91-2.49,2.83c-0.98,0.93-2.1,1.79-3.34,2.58c-1.25,0.79-2.61,1.38-4.08,1.76
		c0.68,0.72,1.25,1.46,1.7,2.21s0.68,1.59,0.68,2.49s-0.26,1.81-0.77,2.72s-1.24,1.72-2.18,2.44c-0.95,0.72-2.11,1.3-3.49,1.76
		C226.47,87.81,224.91,88.04,223.18,88.04z M226.63,81.24c0-0.91-0.27-1.72-0.82-2.44c-0.55-0.72-1.22-1.44-2.01-2.15
		c-2.27,0.45-3.98,1.21-5.13,2.27c-1.15,1.06-1.79,2.13-1.9,3.23c-0.11,1.1,0.28,2.06,1.19,2.89c0.91,0.83,2.3,1.25,4.2,1.25
		c0.76,0,1.42-0.16,1.98-0.48c0.57-0.32,1.03-0.73,1.39-1.22c0.36-0.49,0.63-1.03,0.82-1.62C226.54,82.38,226.63,81.8,226.63,81.24z
		"/>
	
		<linearGradient id="SVGID_00000037652079195982862090000010431419161509620157_" gradientUnits="userSpaceOnUse" x1="236.8939" y1="64.3773" x2="260.9797" y2="64.3773">
		<stop  offset="0" style="stop-color:#9F1EFB"/>
		<stop  offset="1" style="stop-color:#7A17BF"/>
	</linearGradient>
	<path style="fill:url(#SVGID_00000037652079195982862090000010431419161509620157_);" d="M237.91,50.96c0.53,0,1.37-0.03,2.52-0.08
		c1.15-0.06,2.45-0.12,3.88-0.2c0.23-1.21,0.45-2.34,0.68-3.4c0.23-1.06,0.43-2.06,0.62-3c0-0.68,0.33-1.2,0.99-1.56
		c0.66-0.36,1.39-0.57,2.18-0.62s1.53,0.03,2.21,0.25c0.68,0.23,1.06,0.62,1.13,1.19c0,0.15-0.08,0.84-0.23,2.07
		c-0.15,1.23-0.34,2.77-0.57,4.62c1.32-0.08,2.59-0.13,3.8-0.17c1.21-0.04,2.27-0.06,3.17-0.06c0.42,0,0.75,0.14,0.99,0.43
		c0.25,0.28,0.38,0.59,0.4,0.94c0.02,0.34-0.08,0.65-0.31,0.93c-0.23,0.28-0.59,0.43-1.08,0.43c-0.95,0-2.05,0-3.32,0
		c-1.27,0-2.6-0.02-4-0.06c-0.26,2-0.53,4.17-0.79,6.49c-0.26,2.32-0.5,4.64-0.71,6.94c-0.21,2.31-0.39,4.54-0.54,6.69
		c-0.15,2.15-0.22,4.06-0.2,5.73c0.02,1.66,0.13,2.99,0.34,3.97c0.21,0.98,0.54,1.47,0.99,1.47s0.96-0.36,1.53-1.08
		c0.57-0.72,1.15-1.64,1.76-2.78c0.6-1.13,1.21-2.41,1.81-3.83c0.6-1.42,1.18-2.81,1.73-4.19s1.04-2.67,1.47-3.86
		s0.78-2.14,1.05-2.86c0.11-0.26,0.26-0.45,0.45-0.57c0.19-0.11,0.38-0.15,0.57-0.11c0.19,0.04,0.33,0.12,0.42,0.25
		c0.09,0.13,0.1,0.33,0.03,0.6c-1.1,3.14-2.12,6-3.06,8.59c-0.95,2.59-1.91,4.81-2.89,6.66c-0.98,1.85-2.04,3.3-3.17,4.34
		c-1.13,1.04-2.42,1.56-3.85,1.56c-1.47,0-2.66-0.51-3.57-1.53s-1.58-2.39-2.01-4.11c-0.43-1.72-0.67-3.72-0.71-6.01
		c-0.04-2.29,0.04-4.69,0.23-7.2c0.19-2.51,0.48-5.08,0.88-7.71c0.4-2.63,0.8-5.15,1.22-7.57c-1.36-0.04-2.58-0.07-3.66-0.08
		c-1.08-0.02-1.88-0.03-2.41-0.03c-0.34,0-0.59-0.08-0.76-0.23c-0.17-0.15-0.25-0.32-0.25-0.51c0-0.19,0.08-0.36,0.25-0.51
		C237.32,51.04,237.57,50.96,237.91,50.96z"/>
	
		<linearGradient id="SVGID_00000104666303492562050880000009513418117544321462_" gradientUnits="userSpaceOnUse" x1="262.7991" y1="82.3704" x2="270.7923" y2="82.3704">
		<stop  offset="0" style="stop-color:#F9532C"/>
		<stop  offset="0.9997" style="stop-color:#FF9948"/>
	</linearGradient>
	<path style="fill:url(#SVGID_00000104666303492562050880000009513418117544321462_);" d="M263.93,85.26
		c-0.76-0.76-1.13-1.72-1.13-2.89c0-1.17,0.38-2.13,1.13-2.89c0.76-0.76,1.72-1.13,2.89-1.13c1.17,0,2.12,0.38,2.86,1.13
		c0.74,0.76,1.11,1.72,1.11,2.89c0,1.17-0.38,2.13-1.13,2.89c-0.76,0.76-1.7,1.13-2.83,1.13C265.65,86.4,264.69,86.02,263.93,85.26z
		"/>
	<g>
		
			<linearGradient id="SVGID_00000088853992735206535480000014678188262753096082_" gradientUnits="userSpaceOnUse" x1="121.4622" y1="102.1375" x2="130.6473" y2="102.1375">
			<stop  offset="0" style="stop-color:#F9532C"/>
			<stop  offset="0.9997" style="stop-color:#FF9948"/>
		</linearGradient>
		<path style="fill:url(#SVGID_00000088853992735206535480000014678188262753096082_);" d="M126.81,98.01l-1.73,8.06
			c0.27,0.2,0.55,0.29,0.82,0.29c1.71,0,2.76-3.46,2.76-6.22c0-1.8-0.33-2.82-1.98-2.82c-2.33,0-3.88,1.31-3.88,3.49
			c0,0.73,0.19,0.85,0.2,0.98c-0.99,0-1.54-0.36-1.54-1.39c0-1.91,2.64-3.74,5.05-3.74c3.32,0,4.14,1.85,4.14,3.88
			c0,3.71-1.85,7.09-3.98,7.09c-0.55,0-1.14-0.23-1.75-0.76l-0.12,0.58h-2.07l1.96-9.14L126.81,98.01z"/>
		
			<linearGradient id="SVGID_00000160891664415480623220000008522398998012372120_" gradientUnits="userSpaceOnUse" x1="130.8172" y1="102.3172" x2="140.5472" y2="102.3172">
			<stop  offset="0" style="stop-color:#F9532C"/>
			<stop  offset="0.9997" style="stop-color:#FF9948"/>
		</linearGradient>
		<path style="fill:url(#SVGID_00000160891664415480623220000008522398998012372120_);" d="M134.01,100.25l-1.04,4.89
			c-0.06,0.24-0.11,0.52-0.11,0.72c0,0.24,0.09,0.42,0.37,0.42c0.27,0,0.53-0.29,0.78-0.68c0-1.19,0.52-1.85,1.09-1.9
			c0.52-0.93,0.85-2.21,1.09-3.31l2.08-0.43v0.2c0,2.37,0.96,3.09,0.98,4.77l-0.01,0.3c0.4-0.36,0.76-0.73,0.93-0.93l0.37,0.49
			c-0.4,0.32-0.98,0.82-1.55,1.31c-0.37,0.79-1.19,1.34-2.53,1.34c-1.32,0-2.11-0.29-2.37-1.14c-0.47,0.63-1.01,1.14-1.5,1.14
			c-1.12,0-1.78-0.49-1.78-1.57c0-0.23,0.03-0.46,0.09-0.73l1.02-4.89H134.01z M133.3,97.2c0.63,0,1.15,0.52,1.15,1.15
			c0,0.63-0.52,1.14-1.15,1.14s-1.14-0.5-1.14-1.14C132.17,97.72,132.67,97.2,133.3,97.2z M135.26,105.49
			c-0.17,0-0.34-0.03-0.52-0.12c0,0.85,0.46,1.21,1.22,1.21c0.49,0,1.19-0.6,1.19-1.71c0-0.89-0.65-1.65-0.68-3.45
			c-0.23,0.7-0.43,1.62-0.75,2.34c0.35,0.11,0.47,0.37,0.47,0.8C136.21,105.12,135.76,105.49,135.26,105.49z"/>
		
			<linearGradient id="SVGID_00000109734561732475918600000003523992077188566449_" gradientUnits="userSpaceOnUse" x1="139.6966" y1="103.8192" x2="145.6761" y2="103.8192">
			<stop  offset="0" style="stop-color:#F9532C"/>
			<stop  offset="0.9997" style="stop-color:#FF9948"/>
		</linearGradient>
		<path style="fill:url(#SVGID_00000109734561732475918600000003523992077188566449_);" d="M144.15,101.27
			c0-0.35-0.21-0.49-0.53-0.49c-1.21,0-1.98,2.34-1.98,3.9c0,0.85,0.17,1.54,1.05,1.54c1.02,0,1.84-0.6,2.5-1.35h0.49
			c-0.69,0.78-1.47,2.57-4.01,2.57c-1.19,0-1.97-0.66-1.97-2.36c0-2.1,0.91-4.87,3.69-4.87c0.78,0,1.58,0.2,1.58,0.99
			c0,0.16-0.01,0.29-0.07,0.47c-0.07-0.04-0.19-0.09-0.36-0.09c-0.13,0-0.27,0.03-0.46,0.09
			C144.12,101.51,144.15,101.38,144.15,101.27z"/>
		
			<linearGradient id="SVGID_00000114049477610085792960000008578525844291290517_" gradientUnits="userSpaceOnUse" x1="144.9554" y1="103.8118" x2="152.4583" y2="103.8118">
			<stop  offset="0" style="stop-color:#F9532C"/>
			<stop  offset="0.9997" style="stop-color:#FF9948"/>
		</linearGradient>
		<path style="fill:url(#SVGID_00000114049477610085792960000008578525844291290517_);" d="M150.47,102.22
			c0.09,0.09,0.22,0.13,0.42,0.13c0.68,0,0.98-0.49,1.51-0.71l0.06,0.3c-0.45,0.56-1.19,1.04-2.03,1.27
			c-0.27,2.89-1.84,4.31-3.28,4.31c-1.54,0-2.2-0.65-2.2-2.36c0-3.54,1.8-5.06,3.78-5.06C150.1,100.1,150.45,101.17,150.47,102.22z
			 M149.37,103.35c-0.42,0-0.6-0.3-0.6-0.65c0-0.42,0.25-0.86,0.63-1.01c-0.04-0.47-0.2-0.75-0.6-0.75c-1.35,0-1.93,2.93-1.93,4.08
			c0,0.86,0.4,1.09,0.96,1.09C148.71,106.13,149.2,104.75,149.37,103.35z"/>
		
			<linearGradient id="SVGID_00000155860414820300171780000011109742212483030958_" gradientUnits="userSpaceOnUse" x1="150.9046" y1="103.6971" x2="156.7259" y2="103.6971">
			<stop  offset="0" style="stop-color:#F9532C"/>
			<stop  offset="0.9997" style="stop-color:#FF9948"/>
		</linearGradient>
		<path style="fill:url(#SVGID_00000155860414820300171780000011109742212483030958_);" d="M156.73,101.25
			c0,2.24-1.14,6.18-4.04,6.18c-1.11,0-1.78-0.49-1.78-1.57c0-0.22,0.01-0.46,0.07-0.73l1.04-4.89h2.07l-1.04,4.89
			c-0.04,0.2-0.07,0.37-0.07,0.53c0,0.27,0.13,0.46,0.55,0.46c1.41,0,2.37-3.15,2.37-4.71c-0.09,0.03-0.22,0.06-0.3,0.06
			c-0.42,0-0.6-0.4-0.6-0.81c0-0.3,0.34-0.7,0.82-0.7C156.42,99.96,156.73,100.51,156.73,101.25z"/>
		
			<linearGradient id="SVGID_00000011709683716500523160000012550922793030117010_" gradientUnits="userSpaceOnUse" x1="156.8382" y1="103.7762" x2="163.0189" y2="103.7762">
			<stop  offset="0" style="stop-color:#F9532C"/>
			<stop  offset="0.9997" style="stop-color:#FF9948"/>
		</linearGradient>
		<path style="fill:url(#SVGID_00000011709683716500523160000012550922793030117010_);" d="M159.96,106.4c0.7,0,1.91-0.83,2.42-1.9
			h0.65c-0.82,1.48-2.2,2.93-4.05,2.93c-1.38,0-2.13-1.05-2.13-2.29c0-1.83,0.78-5.03,3.39-5.03c1.18,0,1.84,0.49,1.84,1.5
			c0,1.75-1.88,2.76-3.25,2.93c-0.03,0.23-0.04,0.45-0.04,0.62C158.78,106.11,159.4,106.4,159.96,106.4z M160.7,100.88
			c-0.8,0-1.47,1.62-1.77,2.98c1.32-0.01,2.26-1.15,2.27-2.17C161.21,101.38,161.14,100.88,160.7,100.88z"/>
		
			<linearGradient id="SVGID_00000176753949710699951160000005535486366380696743_" gradientUnits="userSpaceOnUse" x1="161.7523" y1="103.8411" x2="167.9183" y2="103.8411">
			<stop  offset="0" style="stop-color:#F9532C"/>
			<stop  offset="0.9997" style="stop-color:#FF9948"/>
		</linearGradient>
		<path style="fill:url(#SVGID_00000176753949710699951160000005535486366380696743_);" d="M165.35,100.25l-0.16,0.72
			c0.52-0.4,1.09-0.72,1.7-0.72c0.65,0,1.03,0.37,1.03,0.92c0,0.5-0.37,1.12-1.08,1.12c-0.8,0-0.4-0.95-0.83-0.95
			c-0.43,0-0.66,0.16-0.99,0.46l-1.19,5.63h-2.07l1.52-7.19H165.35z"/>
		
			<linearGradient id="SVGID_00000134946174772203699410000007413585069709433495_" gradientUnits="userSpaceOnUse" x1="171.0638" y1="102.1663" x2="179.5882" y2="102.1663">
			<stop  offset="0" style="stop-color:#F9532C"/>
			<stop  offset="0.9997" style="stop-color:#FF9948"/>
		</linearGradient>
		<path style="fill:url(#SVGID_00000134946174772203699410000007413585069709433495_);" d="M176.41,98.01l-0.69,3.19h0.1
			c1.19,0,2.04-1.28,2.04-2.37c0-0.8-0.46-1.51-1.58-1.51c-2.33,0-3.88,1.31-3.88,3.49c0,0.73,0.19,0.85,0.2,0.98
			c-0.99,0-1.54-0.36-1.54-1.39c0-1.91,2.65-3.74,5.05-3.74c2.26,0,3.26,1.12,3.26,2.3c0,0.85-0.52,1.74-1.44,2.27
			c1.18,0.23,1.65,1.22,1.65,2.34c0,1.85-1.28,4.11-2.86,4.11c-0.86,0-1.7-0.09-1.7-0.99c0-0.25,0.06-0.55,0.19-0.91
			c0.27,0.45,0.76,0.52,0.96,0.52c0.79,0,1.42-1.42,1.42-2.64c0-0.93-0.36-1.77-1.31-1.77c-0.19,0-0.46,0.01-0.72,0.04l-1.18,5.5
			h-2.07l1.95-9.14L176.41,98.01z"/>
		
			<linearGradient id="SVGID_00000013901490131152753890000010799445328269153714_" gradientUnits="userSpaceOnUse" x1="179.8441" y1="103.7762" x2="186.0247" y2="103.7762">
			<stop  offset="0" style="stop-color:#F9532C"/>
			<stop  offset="0.9997" style="stop-color:#FF9948"/>
		</linearGradient>
		<path style="fill:url(#SVGID_00000013901490131152753890000010799445328269153714_);" d="M182.96,106.4c0.7,0,1.91-0.83,2.42-1.9
			h0.65c-0.82,1.48-2.2,2.93-4.05,2.93c-1.38,0-2.13-1.05-2.13-2.29c0-1.83,0.78-5.03,3.39-5.03c1.18,0,1.84,0.49,1.84,1.5
			c0,1.75-1.88,2.76-3.25,2.93c-0.03,0.23-0.04,0.45-0.04,0.62C181.78,106.11,182.4,106.4,182.96,106.4z M183.71,100.88
			c-0.8,0-1.47,1.62-1.77,2.98c1.32-0.01,2.26-1.15,2.27-2.17C184.21,101.38,184.14,100.88,183.71,100.88z"/>
		
			<linearGradient id="SVGID_00000147899655311373653790000015229444993910833289_" gradientUnits="userSpaceOnUse" x1="185.0023" y1="105.638" x2="192.9651" y2="105.638">
			<stop  offset="0" style="stop-color:#F9532C"/>
			<stop  offset="0.9997" style="stop-color:#FF9948"/>
		</linearGradient>
		<path style="fill:url(#SVGID_00000147899655311373653790000015229444993910833289_);" d="M192.1,100.25l-1.34,6.29
			c0.89-0.43,1.71-1.06,2.2-2.13l-0.06,1.14c-0.19,0.91-1.16,1.34-2.29,1.65l-0.29,1.38c-0.43,2.06-1.64,2.44-2.59,2.44
			c-0.88,0-1.7-0.62-1.7-1.55c0-1.32,1.11-1.75,2.47-2.16l0.2-0.98c-0.65,0.59-1.35,1.09-1.93,1.09c-1.11,0-1.8-0.49-1.8-1.57
			c0-0.22,0.03-0.46,0.09-0.73l1.04-4.89h2.07l-1.03,4.89c-0.03,0.16-0.06,0.32-0.06,0.45c0,0.32,0.14,0.55,0.72,0.55
			c0.32,0,0.7-0.25,1.08-0.56l1.13-5.32H192.1z M187.42,109.75c0.29,0,0.66-0.27,0.83-1.12l0.17-0.83c-0.91,0.3-1.58,0.7-1.58,1.48
			C186.84,109.48,187.1,109.75,187.42,109.75z"/>
		
			<linearGradient id="SVGID_00000015318515554035521070000000017911224591775406_" gradientUnits="userSpaceOnUse" x1="192.431" y1="103.8118" x2="199.9339" y2="103.8118">
			<stop  offset="0" style="stop-color:#F9532C"/>
			<stop  offset="0.9997" style="stop-color:#FF9948"/>
		</linearGradient>
		<path style="fill:url(#SVGID_00000015318515554035521070000000017911224591775406_);" d="M197.95,102.22
			c0.09,0.09,0.22,0.13,0.42,0.13c0.68,0,0.98-0.49,1.51-0.71l0.06,0.3c-0.45,0.56-1.19,1.04-2.03,1.27
			c-0.27,2.89-1.84,4.31-3.28,4.31c-1.54,0-2.2-0.65-2.2-2.36c0-3.54,1.8-5.06,3.78-5.06C197.58,100.1,197.92,101.17,197.95,102.22z
			 M196.84,103.35c-0.42,0-0.6-0.3-0.6-0.65c0-0.42,0.25-0.86,0.63-1.01c-0.04-0.47-0.2-0.75-0.6-0.75c-1.35,0-1.93,2.93-1.93,4.08
			c0,0.86,0.4,1.09,0.96,1.09C196.18,106.13,196.67,104.75,196.84,103.35z"/>
		
			<linearGradient id="SVGID_00000178173480133194373390000015194250743299922333_" gradientUnits="userSpaceOnUse" x1="198.0921" y1="103.8411" x2="206.9319" y2="103.8411">
			<stop  offset="0" style="stop-color:#F9532C"/>
			<stop  offset="0.9997" style="stop-color:#FF9948"/>
		</linearGradient>
		<path style="fill:url(#SVGID_00000178173480133194373390000015194250743299922333_);" d="M204.43,105.13
			c-0.04,0.16-0.07,0.32-0.07,0.46c0,0.32,0.16,0.53,0.72,0.53c0.58,0,0.79-0.45,1.37-0.91h0.49c-0.66,0.66-1.75,2.21-2.88,2.21
			s-1.78-0.49-1.78-1.57c0-0.23,0.03-0.46,0.09-0.73l0.55-2.59c0.03-0.13,0.04-0.26,0.04-0.37c0-0.52-0.27-0.85-0.66-0.85
			c-0.34,0-0.6,0.1-0.91,0.3l-1.22,5.81h-2.07l1.52-7.19h2.07l-0.17,0.78c0.59-0.43,1.25-0.78,1.88-0.78c0.78,0,1.65,0.83,1.65,1.8
			c0,0.12,0,0.23-0.03,0.35L204.43,105.13z"/>
		
			<linearGradient id="SVGID_00000054226975331580858680000005533466055820371841_" gradientUnits="userSpaceOnUse" x1="205.5794" y1="102.4466" x2="213.054" y2="102.4466">
			<stop  offset="0" style="stop-color:#F9532C"/>
			<stop  offset="0.9997" style="stop-color:#FF9948"/>
		</linearGradient>
		<path style="fill:url(#SVGID_00000054226975331580858680000005533466055820371841_);" d="M211.4,105.13
			c-0.04,0.17-0.07,0.33-0.07,0.49c0,0.3,0.11,0.53,0.52,0.53c0.1,0,0.26,0,0.37-0.04c-0.4,1.24-1.01,1.32-1.5,1.32
			c-0.83,0-1.28-0.43-1.42-1.08c-0.43,0.59-1.08,1.16-1.94,1.16c-1.38,0-1.78-0.98-1.78-1.83c0-2.47,0.89-5.43,3.77-5.43
			c0.35,0,0.71,0.16,0.96,0.36l0.63-2.96l2.11-0.29L211.4,105.13z M207.52,105.31c0,0.86,0.47,1.02,0.83,1.02
			c0.33,0,0.63-0.32,0.91-0.71c0.01-0.16,0.04-0.32,0.09-0.49l0.82-3.82c-0.23-0.19-0.5-0.24-0.7-0.24
			C208.38,101.07,207.52,103.35,207.52,105.31z"/>
		
			<linearGradient id="SVGID_00000036946470546978323540000002234907993478489476_" gradientUnits="userSpaceOnUse" x1="215.7669" y1="102.1663" x2="224.2913" y2="102.1663">
			<stop  offset="0" style="stop-color:#F9532C"/>
			<stop  offset="0.9997" style="stop-color:#FF9948"/>
		</linearGradient>
		<path style="fill:url(#SVGID_00000036946470546978323540000002234907993478489476_);" d="M221.11,98.01l-0.69,3.19h0.1
			c1.19,0,2.04-1.28,2.04-2.37c0-0.8-0.46-1.51-1.58-1.51c-2.33,0-3.88,1.31-3.88,3.49c0,0.73,0.19,0.85,0.2,0.98
			c-0.99,0-1.54-0.36-1.54-1.39c0-1.91,2.65-3.74,5.05-3.74c2.26,0,3.26,1.12,3.26,2.3c0,0.85-0.52,1.74-1.44,2.27
			c1.18,0.23,1.65,1.22,1.65,2.34c0,1.85-1.28,4.11-2.86,4.11c-0.86,0-1.7-0.09-1.7-0.99c0-0.25,0.06-0.55,0.19-0.91
			c0.27,0.45,0.76,0.52,0.96,0.52c0.79,0,1.42-1.42,1.42-2.64c0-0.93-0.36-1.77-1.31-1.77c-0.19,0-0.46,0.01-0.72,0.04l-1.18,5.5
			h-2.07l1.95-9.14L221.11,98.01z"/>
		
			<linearGradient id="SVGID_00000014611833624949083060000015843488813229149069_" gradientUnits="userSpaceOnUse" x1="224.7044" y1="103.8118" x2="232.2073" y2="103.8118">
			<stop  offset="0" style="stop-color:#F9532C"/>
			<stop  offset="0.9997" style="stop-color:#FF9948"/>
		</linearGradient>
		<path style="fill:url(#SVGID_00000014611833624949083060000015843488813229149069_);" d="M230.22,102.22
			c0.09,0.09,0.22,0.13,0.42,0.13c0.68,0,0.98-0.49,1.51-0.71l0.06,0.3c-0.45,0.56-1.19,1.04-2.03,1.27
			c-0.27,2.89-1.84,4.31-3.28,4.31c-1.54,0-2.2-0.65-2.2-2.36c0-3.54,1.8-5.06,3.78-5.06C229.85,100.1,230.2,101.17,230.22,102.22z
			 M229.12,103.35c-0.42,0-0.6-0.3-0.6-0.65c0-0.42,0.25-0.86,0.63-1.01c-0.04-0.47-0.2-0.75-0.6-0.75c-1.35,0-1.93,2.93-1.93,4.08
			c0,0.86,0.4,1.09,0.96,1.09C228.46,106.13,228.94,104.75,229.12,103.35z"/>
		
			<linearGradient id="SVGID_00000071520188184106443330000005352197767379037608_" gradientUnits="userSpaceOnUse" x1="230.3519" y1="103.8411" x2="236.5179" y2="103.8411">
			<stop  offset="0" style="stop-color:#F9532C"/>
			<stop  offset="0.9997" style="stop-color:#FF9948"/>
		</linearGradient>
		<path style="fill:url(#SVGID_00000071520188184106443330000005352197767379037608_);" d="M233.95,100.25l-0.16,0.72
			c0.52-0.4,1.09-0.72,1.7-0.72c0.65,0,1.03,0.37,1.03,0.92c0,0.5-0.37,1.12-1.08,1.12c-0.8,0-0.4-0.95-0.83-0.95
			c-0.43,0-0.66,0.16-0.99,0.46l-1.19,5.63h-2.07l1.52-7.19H233.95z"/>
		
			<linearGradient id="SVGID_00000159436046041796759540000009180674682013458096_" gradientUnits="userSpaceOnUse" x1="236.0276" y1="102.4466" x2="244.9105" y2="102.4466">
			<stop  offset="0" style="stop-color:#F9532C"/>
			<stop  offset="0.9997" style="stop-color:#FF9948"/>
		</linearGradient>
		<path style="fill:url(#SVGID_00000159436046041796759540000009180674682013458096_);" d="M243.52,97.37l-1.64,7.76
			c-0.03,0.16-0.07,0.32-0.07,0.46c0,0.32,0.16,0.53,0.72,0.53c0.58,0,1.32-0.81,1.9-1.27h0.49c-0.66,0.66-2.29,2.57-3.41,2.57
			c-0.93,0-1.55-0.34-1.74-1.09c-0.43,0.59-1.08,1.18-1.96,1.18c-1.38,0-1.78-0.98-1.78-1.83c0-2.47,0.89-5.43,3.77-5.43
			c0.35,0,0.71,0.14,0.96,0.36l0.63-2.96L243.52,97.37z M237.97,105.31c0,0.86,0.47,1.02,0.83,1.02c0.33,0,0.65-0.32,0.92-0.72
			c0.01-0.14,0.04-0.3,0.09-0.47l0.8-3.81c-0.23-0.2-0.5-0.26-0.7-0.26C238.83,101.07,237.97,103.35,237.97,105.31z"/>
		
			<linearGradient id="SVGID_00000161622045380337008910000013455702463190148001_" gradientUnits="userSpaceOnUse" x1="243.0403" y1="103.7762" x2="249.221" y2="103.7762">
			<stop  offset="0" style="stop-color:#F9532C"/>
			<stop  offset="0.9997" style="stop-color:#FF9948"/>
		</linearGradient>
		<path style="fill:url(#SVGID_00000161622045380337008910000013455702463190148001_);" d="M246.16,106.4c0.7,0,1.91-0.83,2.42-1.9
			h0.65c-0.82,1.48-2.2,2.93-4.05,2.93c-1.38,0-2.13-1.05-2.13-2.29c0-1.83,0.78-5.03,3.39-5.03c1.18,0,1.84,0.49,1.84,1.5
			c0,1.75-1.88,2.76-3.25,2.93c-0.03,0.23-0.04,0.45-0.04,0.62C244.98,106.11,245.6,106.4,246.16,106.4z M246.91,100.88
			c-0.8,0-1.47,1.62-1.77,2.98c1.32-0.01,2.26-1.15,2.27-2.17C247.41,101.38,247.34,100.88,246.91,100.88z"/>
		
			<linearGradient id="SVGID_00000003076746381963354380000013338913974567666305_" gradientUnits="userSpaceOnUse" x1="247.9544" y1="103.8411" x2="254.1204" y2="103.8411">
			<stop  offset="0" style="stop-color:#F9532C"/>
			<stop  offset="0.9997" style="stop-color:#FF9948"/>
		</linearGradient>
		<path style="fill:url(#SVGID_00000003076746381963354380000013338913974567666305_);" d="M251.55,100.25l-0.16,0.72
			c0.52-0.4,1.09-0.72,1.7-0.72c0.65,0,1.03,0.37,1.03,0.92c0,0.5-0.37,1.12-1.08,1.12c-0.8,0-0.4-0.95-0.83-0.95
			c-0.43,0-0.66,0.16-0.99,0.46l-1.19,5.63h-2.07l1.52-7.19H251.55z"/>
	</g>
</g>
</svg>
